<svg width="18" height="6" viewBox="0 0 18 6" fill="none" xmlns="http://www.w3.org/2000/svg">
<path d="M3.75 2.875C3.75 2.39175 3.35825 2 2.875 2C2.39175 2 2 2.39175 2 2.875C2 3.35825 2.39175 3.75 2.875 3.75C3.35825 3.75 3.75 3.35825 3.75 2.875Z" fill="#1FABEC"/>
<path d="M9.875 2.875C9.875 2.39175 9.48325 2 9 2C8.51675 2 8.125 2.39175 8.125 2.875C8.125 3.35825 8.51675 3.75 9 3.75C9.48325 3.75 9.875 3.35825 9.875 2.875Z" fill="#1FABEC"/>
<path d="M16 2.875C16 2.39175 15.6082 2 15.125 2C14.6418 2 14.25 2.39175 14.25 2.875C14.25 3.35825 14.6418 3.75 15.125 3.75C15.6082 3.75 16 3.35825 16 2.875Z" fill="#1FABEC"/>
<path d="M3.75 2.875C3.75 2.39175 3.35825 2 2.875 2C2.39175 2 2 2.39175 2 2.875C2 3.35825 2.39175 3.75 2.875 3.75C3.35825 3.75 3.75 3.35825 3.75 2.875Z" stroke="#1FABEC" stroke-width="3" stroke-linecap="round" stroke-linejoin="round"/>
<path d="M9.875 2.875C9.875 2.39175 9.48325 2 9 2C8.51675 2 8.125 2.39175 8.125 2.875C8.125 3.35825 8.51675 3.75 9 3.75C9.48325 3.75 9.875 3.35825 9.875 2.875Z" stroke="#1FABEC" stroke-width="3" stroke-linecap="round" stroke-linejoin="round"/>
<path d="M16 2.875C16 2.39175 15.6082 2 15.125 2C14.6418 2 14.25 2.39175 14.25 2.875C14.25 3.35825 14.6418 3.75 15.125 3.75C15.6082 3.75 16 3.35825 16 2.875Z" stroke="#1FABEC" stroke-width="3" stroke-linecap="round" stroke-linejoin="round"/>
</svg>
