<svg width="18" height="22" viewBox="0 0 18 22" fill="none" xmlns="http://www.w3.org/2000/svg">
<path d="M9 11L12.8626 8.42496C13.644 7.90398 14.0348 7.64349 14.3176 7.29933C14.5681 6.99464 14.7559 6.64357 14.8705 6.2662C15 5.83994 15 5.37033 15 4.43112V4.2C15 3.0799 15 2.51984 14.782 2.09202C14.5903 1.71569 14.2843 1.40973 13.908 1.21799C13.4802 1 12.9201 1 11.8 1H6.2C5.0799 1 4.51984 1 4.09202 1.21799C3.71569 1.40973 3.40973 1.71569 3.21799 2.09202C3 2.51984 3 3.0799 3 4.2V4.43112C3 5.37033 3 5.83994 3.12945 6.2662C3.24406 6.64357 3.43194 6.99464 3.68236 7.29933C3.96523 7.64349 4.35597 7.90398 5.13744 8.42496L9 11ZM9 11L5.13744 13.575C4.35597 14.096 3.96523 14.3565 3.68236 14.7007C3.43194 15.0054 3.24406 15.3564 3.12945 15.7338C3 16.1601 3 16.6297 3 17.5689V17.8C3 18.9201 3 19.4802 3.21799 19.908C3.40973 20.2843 3.71569 20.5903 4.09202 20.782C4.51984 21 5.07989 21 6.2 21H11.8C12.9201 21 13.4802 21 13.908 20.782C14.2843 20.5903 14.5903 20.2843 14.782 19.908C15 19.4802 15 18.9201 15 17.8V17.5689C15 16.6297 15 16.1601 14.8705 15.7338C14.7559 15.3564 14.5681 15.0054 14.3176 14.7007C14.0348 14.3565 13.644 14.096 12.8626 13.575L9 11ZM1 1H17M1 21H17M6 18H12M9 7.5L7.5 6.5H10.5L9 7.5Z" stroke="white" stroke-width="2" stroke-linecap="round" stroke-linejoin="round"/>
</svg>
